<?xml version="1.0" encoding="UTF-8"?>
<svg xmlns="http://www.w3.org/2000/svg" xmlns:xlink="http://www.w3.org/1999/xlink" width="612" height="792" viewBox="0 0 612 792">
<path fill-rule="nonzero" fill="rgb(12.939453%, 39.608765%, 89.7995%)" fill-opacity="1" d="M 399.75 204.09375 L 225.09375 204.09375 C 224.476562 204.09375 223.867188 204.152344 223.265625 204.273438 C 222.660156 204.394531 222.074219 204.570312 221.507812 204.808594 C 220.9375 205.042969 220.398438 205.332031 219.886719 205.671875 C 219.375 206.015625 218.898438 206.40625 218.464844 206.839844 C 218.03125 207.273438 217.640625 207.75 217.296875 208.261719 C 216.957031 208.773438 216.667969 209.3125 216.433594 209.882812 C 216.195312 210.449219 216.019531 211.035156 215.898438 211.640625 C 215.777344 212.242188 215.71875 212.851562 215.71875 213.46875 L 215.71875 388.03125 C 215.71875 388.648438 215.777344 389.257812 215.898438 389.859375 C 216.019531 390.464844 216.195312 391.050781 216.433594 391.617188 C 216.667969 392.1875 216.957031 392.726562 217.296875 393.238281 C 217.640625 393.75 218.03125 394.226562 218.464844 394.660156 C 218.898438 395.09375 219.375 395.484375 219.886719 395.828125 C 220.398438 396.167969 220.9375 396.457031 221.507812 396.691406 C 222.074219 396.929688 222.660156 397.105469 223.265625 397.226562 C 223.867188 397.347656 224.476562 397.40625 225.09375 397.40625 L 399.75 397.40625 C 400.367188 397.40625 400.976562 397.347656 401.578125 397.226562 C 402.183594 397.105469 402.769531 396.929688 403.335938 396.691406 C 403.90625 396.457031 404.445312 396.167969 404.957031 395.828125 C 405.46875 395.484375 405.945312 395.09375 406.378906 394.660156 C 406.8125 394.226562 407.203125 393.75 407.546875 393.238281 C 407.886719 392.726562 408.175781 392.1875 408.410156 391.617188 C 408.648438 391.050781 408.824219 390.464844 408.945312 389.859375 C 409.066406 389.257812 409.125 388.648438 409.125 388.03125 L 409.125 314.25 L 323.34375 314.25 C 322.875 314.289062 322.402344 314.304688 321.929688 314.292969 C 321.457031 314.285156 320.988281 314.25 320.519531 314.191406 C 320.050781 314.132812 319.585938 314.050781 319.128906 313.945312 C 318.667969 313.839844 318.214844 313.707031 317.769531 313.554688 C 317.324219 313.402344 316.886719 313.226562 316.457031 313.027344 C 316.027344 312.828125 315.613281 312.609375 315.207031 312.367188 C 314.800781 312.125 314.410156 311.863281 314.03125 311.582031 C 313.652344 311.300781 313.289062 311 312.941406 310.679688 C 312.59375 310.359375 312.265625 310.023438 311.953125 309.671875 C 311.640625 309.316406 311.347656 308.949219 311.074219 308.5625 C 310.796875 308.179688 310.542969 307.78125 310.3125 307.371094 C 310.078125 306.960938 309.867188 306.539062 309.675781 306.109375 C 309.488281 305.675781 309.320312 305.234375 309.175781 304.785156 C 309.03125 304.335938 308.914062 303.878906 308.816406 303.417969 C 308.71875 302.957031 308.644531 302.492188 308.597656 302.023438 C 308.546875 301.550781 308.523438 301.082031 308.523438 300.609375 C 308.523438 300.136719 308.546875 299.667969 308.597656 299.199219 C 308.644531 298.726562 308.71875 298.261719 308.816406 297.800781 C 308.914062 297.339844 309.03125 296.882812 309.175781 296.433594 C 309.320312 295.984375 309.488281 295.542969 309.675781 295.109375 C 309.867188 294.679688 310.078125 294.257812 310.3125 293.847656 C 310.542969 293.4375 310.796875 293.039062 311.074219 292.65625 C 311.347656 292.269531 311.640625 291.902344 311.953125 291.546875 C 312.265625 291.195312 312.59375 290.859375 312.941406 290.539062 C 313.289062 290.21875 313.652344 289.917969 314.03125 289.636719 C 314.410156 289.355469 314.800781 289.09375 315.207031 288.851562 C 315.613281 288.609375 316.027344 288.390625 316.457031 288.191406 C 316.886719 287.992188 317.324219 287.816406 317.769531 287.664062 C 318.214844 287.511719 318.667969 287.378906 319.128906 287.273438 C 319.585938 287.167969 320.050781 287.085938 320.519531 287.027344 C 320.988281 286.96875 321.457031 286.933594 321.929688 286.925781 C 322.402344 286.914062 322.875 286.929688 323.34375 286.96875 L 409.125 286.96875 L 409.125 213.1875 C 409.105469 212.582031 409.03125 211.988281 408.898438 211.398438 C 408.765625 210.808594 408.574219 210.238281 408.332031 209.6875 C 408.089844 209.132812 407.792969 208.609375 407.449219 208.113281 C 407.105469 207.617188 406.714844 207.160156 406.28125 206.738281 C 405.847656 206.320312 405.378906 205.945312 404.871094 205.613281 C 404.367188 205.285156 403.832031 205.007812 403.273438 204.78125 C 402.714844 204.554688 402.136719 204.382812 401.546875 204.265625 C 400.953125 204.152344 400.355469 204.09375 399.75 204.09375 Z M 399.75 204.09375 "/>
<path fill-rule="nonzero" fill="rgb(12.939453%, 39.608765%, 89.7995%)" fill-opacity="1" d="M 570.65625 204.84375 C 570.304688 201.730469 569.769531 198.652344 569.058594 195.601562 C 568.34375 192.550781 567.457031 189.550781 566.390625 186.605469 C 565.328125 183.660156 564.097656 180.785156 562.699219 177.984375 C 561.300781 175.179688 559.742188 172.46875 558.027344 169.847656 C 556.308594 167.230469 554.449219 164.71875 552.4375 162.3125 C 550.429688 159.910156 548.285156 157.632812 546.011719 155.480469 C 543.734375 153.328125 541.34375 151.316406 538.832031 149.441406 C 536.324219 147.570312 533.710938 145.847656 531 144.28125 C 464.71875 103.6875 399.75 62.25 338.34375 24.75 C 335.945312 23.207031 333.445312 21.84375 330.851562 20.660156 C 328.257812 19.472656 325.59375 18.476562 322.855469 17.675781 C 320.117188 16.871094 317.335938 16.265625 314.515625 15.859375 C 311.691406 15.453125 308.851562 15.25 306 15.25 C 303.148438 15.25 300.308594 15.453125 297.484375 15.859375 C 294.664062 16.265625 291.882812 16.871094 289.144531 17.675781 C 286.40625 18.476562 283.742188 19.472656 281.148438 20.660156 C 278.554688 21.84375 276.054688 23.207031 273.65625 24.75 C 212.25 62.25 147.28125 103.96875 81 144.28125 C 78.304688 145.863281 75.707031 147.59375 73.210938 149.472656 C 70.714844 151.355469 68.335938 153.375 66.074219 155.53125 C 63.808594 157.691406 61.679688 159.96875 59.683594 162.375 C 57.683594 164.777344 55.832031 167.289062 54.125 169.910156 C 52.417969 172.527344 50.871094 175.238281 49.476562 178.035156 C 48.082031 180.832031 46.855469 183.703125 45.796875 186.644531 C 44.738281 189.585938 43.851562 192.578125 43.136719 195.621094 C 42.421875 198.664062 41.886719 201.738281 41.53125 204.84375 C 37.121094 272.28125 37.121094 339.71875 41.53125 407.15625 C 41.878906 410.265625 42.40625 413.339844 43.113281 416.386719 C 43.820312 419.433594 44.703125 422.429688 45.757812 425.371094 C 46.816406 428.316406 48.039062 431.1875 49.429688 433.988281 C 50.820312 436.789062 52.371094 439.5 54.078125 442.121094 C 55.785156 444.742188 57.640625 447.253906 59.640625 449.65625 C 61.640625 452.0625 63.773438 454.339844 66.042969 456.496094 C 68.308594 458.648438 70.691406 460.667969 73.195312 462.542969 C 75.695312 464.421875 78.296875 466.144531 81 467.71875 C 147.28125 508.03125 212.25 549.75 273.65625 587.25 C 276.054688 588.792969 278.554688 590.15625 281.148438 591.339844 C 283.742188 592.527344 286.40625 593.523438 289.144531 594.324219 C 291.882812 595.128906 294.664062 595.734375 297.484375 596.140625 C 300.308594 596.546875 303.148438 596.75 306 596.75 C 308.851562 596.75 311.691406 596.546875 314.515625 596.140625 C 317.335938 595.734375 320.117188 595.128906 322.855469 594.324219 C 325.59375 593.523438 328.257812 592.527344 330.851562 591.339844 C 333.445312 590.15625 335.945312 588.792969 338.34375 587.25 C 399.75 549.75 464.71875 508.03125 531 467.71875 C 533.710938 466.15625 536.324219 464.441406 538.832031 462.570312 C 541.34375 460.703125 543.734375 458.691406 546.007812 456.539062 C 548.28125 454.390625 550.421875 452.113281 552.425781 449.707031 C 554.429688 447.304688 556.289062 444.792969 557.996094 442.171875 C 559.707031 439.546875 561.253906 436.835938 562.644531 434.03125 C 564.03125 431.226562 565.253906 428.347656 566.304688 425.402344 C 567.351562 422.453125 568.226562 419.453125 568.921875 416.402344 C 569.621094 413.351562 570.136719 410.269531 570.46875 407.15625 C 574.941406 339.722656 575.003906 272.285156 570.65625 204.84375 Z M 436.3125 388.03125 C 436.3125 389.226562 436.253906 390.417969 436.136719 391.609375 C 436.019531 392.796875 435.84375 393.980469 435.609375 395.152344 C 435.375 396.324219 435.085938 397.480469 434.734375 398.625 C 434.386719 399.769531 433.984375 400.890625 433.527344 401.996094 C 433.066406 403.097656 432.554688 404.175781 431.988281 405.230469 C 431.425781 406.285156 430.808594 407.304688 430.144531 408.296875 C 429.476562 409.292969 428.765625 410.25 428.003906 411.171875 C 427.242188 412.09375 426.441406 412.976562 425.59375 413.820312 C 424.746094 414.660156 423.859375 415.460938 422.933594 416.214844 C 422.007812 416.972656 421.042969 417.679688 420.050781 418.339844 C 419.054688 419.003906 418.027344 419.613281 416.972656 420.171875 C 415.914062 420.730469 414.832031 421.238281 413.726562 421.691406 C 412.621094 422.144531 411.496094 422.542969 410.351562 422.882812 C 409.207031 423.226562 408.046875 423.511719 406.871094 423.738281 C 405.699219 423.96875 404.519531 424.136719 403.328125 424.25 C 402.136719 424.359375 400.945312 424.414062 399.75 424.40625 L 225.09375 424.40625 C 223.90625 424.402344 222.71875 424.34375 221.535156 424.222656 C 220.351562 424.101562 219.175781 423.925781 218.011719 423.691406 C 216.84375 423.457031 215.691406 423.164062 214.554688 422.816406 C 213.417969 422.46875 212.300781 422.066406 211.203125 421.609375 C 210.105469 421.152344 209.03125 420.644531 207.984375 420.082031 C 206.9375 419.519531 205.917969 418.90625 204.929688 418.242188 C 203.941406 417.582031 202.988281 416.871094 202.070312 416.117188 C 201.152344 415.359375 200.273438 414.5625 199.433594 413.71875 C 198.59375 412.878906 197.796875 411.996094 197.042969 411.074219 C 196.289062 410.15625 195.582031 409.199219 194.921875 408.210938 C 194.261719 407.222656 193.652344 406.203125 193.09375 405.152344 C 192.535156 404.101562 192.027344 403.027344 191.574219 401.929688 C 191.117188 400.832031 190.71875 399.710938 190.375 398.574219 C 190.027344 397.433594 189.742188 396.28125 189.507812 395.117188 C 189.277344 393.949219 189.101562 392.773438 188.988281 391.589844 C 188.871094 390.40625 188.8125 389.21875 188.8125 388.03125 L 188.8125 213.1875 C 188.8125 212 188.871094 210.8125 188.988281 209.628906 C 189.101562 208.445312 189.277344 207.269531 189.507812 206.101562 C 189.742188 204.9375 190.027344 203.785156 190.375 202.644531 C 190.71875 201.507812 191.117188 200.386719 191.574219 199.289062 C 192.027344 198.191406 192.535156 197.117188 193.09375 196.066406 C 193.652344 195.015625 194.261719 193.996094 194.921875 193.007812 C 195.582031 192.019531 196.289062 191.0625 197.042969 190.144531 C 197.796875 189.222656 198.59375 188.339844 199.433594 187.5 C 200.273438 186.65625 201.152344 185.859375 202.070312 185.101562 C 202.988281 184.347656 203.941406 183.636719 204.929688 182.976562 C 205.917969 182.3125 206.9375 181.699219 207.984375 181.136719 C 209.03125 180.574219 210.105469 180.066406 211.203125 179.609375 C 212.300781 179.152344 213.417969 178.75 214.554688 178.402344 C 215.691406 178.054688 216.84375 177.761719 218.011719 177.527344 C 219.175781 177.292969 220.351562 177.117188 221.535156 176.996094 C 222.71875 176.875 223.90625 176.816406 225.09375 176.8125 L 399.75 176.8125 C 400.945312 176.804688 402.136719 176.859375 403.328125 176.96875 C 404.519531 177.082031 405.699219 177.25 406.871094 177.480469 C 408.046875 177.707031 409.207031 177.992188 410.351562 178.335938 C 411.496094 178.675781 412.621094 179.074219 413.726562 179.527344 C 414.832031 179.980469 415.914062 180.488281 416.96875 181.046875 C 418.027344 181.605469 419.054688 182.214844 420.046875 182.878906 C 421.042969 183.539062 422.003906 184.246094 422.933594 185 C 423.859375 185.757812 424.746094 186.558594 425.59375 187.398438 C 426.4375 188.242188 427.242188 189.125 428.003906 190.046875 C 428.765625 190.96875 429.476562 191.925781 430.144531 192.917969 C 430.808594 193.914062 431.425781 194.933594 431.988281 195.988281 C 432.554688 197.042969 433.066406 198.121094 433.527344 199.222656 C 433.984375 200.328125 434.386719 201.449219 434.734375 202.59375 C 435.085938 203.738281 435.375 204.894531 435.609375 206.066406 C 435.84375 207.238281 436.019531 208.421875 436.136719 209.609375 C 436.253906 210.800781 436.3125 211.992188 436.3125 213.1875 Z M 436.3125 388.03125 "/>
</svg>
